<svg xmlns="http://www.w3.org/2000/svg" width="104" height="42" fill="none"><g clip-path="url(#a)"><path fill="#0A0A0A" d="M4.96 4.447C5.232 3.15 6.51 2.1 7.815 2.1h7.084L9.006 30.264H1.922c-1.304 0-2.142-1.05-1.871-2.347l4.91-23.47Zm23.616 0C28.848 3.15 30.126 2.1 31.43 2.1h7.084l-5.891 28.164h-7.085c-1.304 0-2.142-1.05-1.87-2.347l4.91-23.47Zm47.232 0C76.078 3.15 77.355 2.1 78.66 2.1h7.085l-5.892 28.164h-7.085c-1.304 0-2.142-1.05-1.87-2.347l4.91-23.47ZM40.875 2.1h7.085c1.304 0 2.142 1.05 1.87 2.347l-4.91 23.47c-.27 1.297-1.548 2.347-2.852 2.347h-7.084L40.875 2.1Zm47.232 0h7.084c1.304 0 2.143 1.05 1.871 2.347l-4.91 23.47c-.271 1.297-1.548 2.347-2.852 2.347h-7.086L88.107 2.1ZM52.193 4.447C52.463 3.15 53.74 2.1 55.044 2.1h7.086l-5.893 28.164h-7.084c-1.305 0-2.143-1.05-1.87-2.347l4.908-23.47h.002ZM64.49 2.1h7.086c1.304 0 2.141 1.05 1.87 2.347l-7.364 35.206C65.809 40.95 64.532 42 63.228 42h-7.086L64.49 2.1ZM13.332 20.876h9.446l-1.473 7.041c-.27 1.297-1.55 2.347-2.852 2.347h-7.086l1.964-9.387ZM46.3 32.612h9.445L53.783 42h-7.085c-1.305 0-2.142-1.05-1.87-2.347l1.473-7.041Zm25.64 2.183-1.196 5.718c-.052.246-.133.313-.38.313h-.544c-.248 0-.302-.067-.25-.313l1.196-5.718c.052-.245.133-.313.38-.313h.544c.248 0 .302.068.25.313Zm1.572 3.858h-.11c-.12 0-.16.033-.185.152l-.358 1.708c-.052.246-.134.313-.38.313h-.545c-.247 0-.3-.067-.25-.313l1.196-5.718c.052-.245.135-.313.382-.313h1.123c1.294 0 1.784.465 1.544 1.607l-.2.956c-.238 1.142-.923 1.608-2.217 1.608Zm.33-2.834-.313 1.497c-.026.119.001.152.12.152h.18c.416 0 .64-.169.73-.6l.125-.601c.09-.43-.062-.6-.479-.6h-.179c-.118 0-.16.033-.185.152Zm3.887.922.884.981c.463.507.528.812.41 1.379l-.032.152c-.223 1.066-.756 1.658-1.99 1.658s-1.538-.499-1.253-1.861l.035-.168c.052-.246.134-.314.38-.314h.579c.247 0 .301.068.25.312l-.079.373c-.07.338.038.474.335.474.299 0 .46-.126.525-.43l.034-.162c.05-.238.023-.355-.233-.635l-.832-.905c-.466-.498-.525-.787-.407-1.354l.039-.185c.223-1.066.756-1.66 1.99-1.66s1.538.5 1.253 1.863l-.035.169c-.052.245-.134.313-.38.313h-.58c-.246 0-.3-.068-.25-.313l.078-.372c.071-.34-.036-.474-.334-.474-.298 0-.461.126-.525.43l-.03.145c-.052.246-.025.364.168.584Zm4.983-1.946c.052-.245.134-.313.381-.313h.544c.247 0 .301.068.25.313l-.89 4.255c-.286 1.362-.798 1.861-2.033 1.861-1.233 0-1.538-.499-1.253-1.861l.89-4.255c.052-.245.134-.313.38-.313h.546c.246 0 .3.068.25.313l-.934 4.458c-.07.338.046.474.37.474.314 0 .496-.136.567-.474l.932-4.458Zm3.543 3.443c.003.068.025.084.067.084s.072-.016.103-.084l1.47-3.535c.073-.179.158-.221.371-.221h.826c.246 0 .3.068.25.313l-1.197 5.718c-.052.246-.135.313-.381.313h-.391c-.247 0-.302-.067-.25-.313l.574-2.74c.016-.076.002-.094-.049-.094-.034 0-.073.018-.093.077l-1.188 2.792c-.085.203-.195.278-.441.278h-.23c-.257 0-.334-.075-.334-.278l-.029-2.793c-.005-.059-.019-.076-.061-.076-.051 0-.072.018-.088.094l-.573 2.74c-.052.246-.133.313-.38.313h-.391c-.248 0-.302-.067-.25-.313l1.196-5.718c.052-.245.134-.313.38-.313h.708c.297 0 .393.068.391.364l-.011 3.392ZM104 2.1c0 1.16-.926 2.1-2.066 2.1a2.052 2.052 0 0 1-1.465-.618 2.119 2.119 0 0 1-.602-1.482c0-1.16.926-2.1 2.067-2.1 1.14 0 2.066.94 2.066 2.1Z"/></g><defs><clipPath id="a"><path fill="#fff" d="M0 0h104v42H0z"/></clipPath></defs></svg>