<svg xmlns="http://www.w3.org/2000/svg" width="62" height="34" fill="none"><g clip-path="url(#a)"><path fill="#0A0A0A" d="M61.995 12.092a.53.53 0 0 0 0-.142.372.372 0 0 0 0-.116l-.46-3.324a2.16 2.16 0 0 0-.51-1.073l-.08-.091-.144-.142L52.85.453l.223.22A1.927 1.927 0 0 0 51.577 0h-2.414a1.762 1.762 0 0 0-1.09.349A1.909 1.909 0 0 0 46.946 0h-2.414a1.818 1.818 0 0 0-.905.225 1.785 1.785 0 0 0-.67.642 1.788 1.788 0 0 0-.262 1.293l.302 2.095c-.2-.112-.426-.17-.656-.168H30.65c-.42.003-.83.124-1.182.35a2.1 2.1 0 0 0-.787.866l-.905-.763a1.892 1.892 0 0 0-1.313-.492H8.12a2.44 2.44 0 0 0-1.194.336 2.18 2.18 0 0 0-1.01 1.294L.09 24.883c-.109.316-.12.657-.03.98a1.678 1.678 0 0 0 .739.985s-.118-.077-.184-.142l7.951 6.764c.337.305.777.476 1.234.478h18.487c.422-.01.834-.131 1.194-.349a1.94 1.94 0 0 0 .538-.427l.066-.09.105-.13.079-.142.866.737c.331.294.761.455 1.207.453h18.526a2.493 2.493 0 0 0 1.194-.35c.2-.115.38-.26.538-.426l.066-.09.105-.13a1.65 1.65 0 0 0 .144-.258 1.4 1.4 0 0 0 .105-.246l5.314-17.537v-.155a.83.83 0 0 0 0-.18v-.117a.356.356 0 0 0 0-.117 1.68 1.68 0 0 0 0-.245h1.706c.148.013.298.013.446 0h.118a1.37 1.37 0 0 0 .276-.117h.131l.236-.18.105-.079.184-.232v-.078l.131-.22a.384.384 0 0 1 0-.129.102.102 0 0 1 0-.065c.028-.075.05-.153.066-.232a.167.167 0 0 1 0-.078.355.355 0 0 1 0-.117s.262-.504.262-.53Z"/><path fill="#fff" d="M27.001 5.523a.45.45 0 0 1 .119.504l-5.813 19.192a.896.896 0 0 1-.42.491 1.11 1.11 0 0 1-.538.181H1.875a.648.648 0 0 1-.42-.18.452.452 0 0 1-.118-.492L7.163 6.027a.895.895 0 0 1 .406-.504c.163-.099.348-.156.538-.169h18.475a.621.621 0 0 1 .42.169Zm-9.643 15.829 3.477-11.458h-9.736L7.635 21.352h9.723ZM44.636 5.717a.642.642 0 0 0 .512.22h2.4a.545.545 0 0 0 .46-.246.54.54 0 0 0 .092-.414l-.472-3.414a1.08 1.08 0 0 0-.236-.427.643.643 0 0 0-.512-.22h-2.401a.544.544 0 0 0-.46.246c-.091.18-.13.297-.091.4l.485 3.415c.025.166.103.32.223.44Zm7.623-3.88a1.083 1.083 0 0 0-.236-.427.616.616 0 0 0-.498-.22H49.11a.504.504 0 0 0-.446.246.537.537 0 0 0-.105.4l.486 3.415c.03.164.108.317.223.44a.668.668 0 0 0 .511.22h2.415a.517.517 0 0 0 .446-.246.489.489 0 0 0 .092-.414l-.473-3.414ZM42.524 7.01l-.237-1.681H30.65c-.183.01-.36.068-.512.168a.758.758 0 0 0-.38.504l-.971 3.207a.435.435 0 0 0 .079.492c.11.102.255.162.406.168h14.145L39.94 21.326H25.834a.993.993 0 0 0-.512.155.88.88 0 0 0-.38.505l-.985 3.207a.473.473 0 0 0 .092.491c.107.11.253.174.407.181h18.527a1.2 1.2 0 0 0 .538-.18.87.87 0 0 0 .407-.492l5.327-17.537h-5.997a.704.704 0 0 1-.511-.207.94.94 0 0 1-.223-.413V7.01Z"/></g><defs><clipPath id="a"><path fill="#fff" d="M0 0h62v34H0z"/></clipPath></defs></svg>