<svg xmlns="http://www.w3.org/2000/svg" width="77" height="20" fill="none"><g fill="#919191" clip-path="url(#a)"><path d="M23.49 13.54h5.413v-1.67h-3.49V5.587H23.49v7.953Zm8.62-1.113c-.771 0-1.174-.69-1.174-1.724s.403-1.735 1.175-1.735c.771 0 1.184.701 1.184 1.735 0 1.035-.413 1.724-1.184 1.724Zm.011 1.29c1.794 0 2.968-1.3 2.968-3.014 0-1.712-1.174-3.014-2.968-3.014-1.782 0-2.978 1.302-2.978 3.014 0 1.713 1.196 3.014 2.978 3.014Zm6.073 1.791c.826 0 1.554-.189 2.043-.634.446-.411.74-1.034.74-1.89v-5.14H39.28v.612h-.022c-.326-.478-.826-.779-1.565-.779-1.38 0-2.338 1.18-2.338 2.847 0 1.747 1.164 2.703 2.414 2.703.674 0 1.098-.278 1.424-.656h.043v.567c0 .69-.315 1.09-1.065 1.09-.587 0-.88-.256-.978-.556h-1.718c.174 1.19 1.185 1.835 2.718 1.835Zm-.011-3.626c-.663 0-1.098-.556-1.098-1.412 0-.868.435-1.424 1.098-1.424.739 0 1.13.645 1.13 1.413 0 .8-.358 1.423-1.13 1.423Zm6.28.545c-.771 0-1.174-.69-1.174-1.724s.403-1.735 1.174-1.735c.772 0 1.185.701 1.185 1.735 0 1.035-.413 1.724-1.185 1.724Zm.011 1.29c1.794 0 2.968-1.3 2.968-3.014 0-1.712-1.174-3.014-2.968-3.014-1.782 0-2.978 1.302-2.978 3.014 0 1.713 1.195 3.014 2.978 3.014Zm3.486-.177h1.771V7.845H47.96v5.695Zm0-6.485h1.771V5.587H47.96v1.468Zm2.54 8.365h1.772v-2.47h.022c.348.478.859.768 1.576.768 1.457 0 2.424-1.18 2.424-3.026 0-1.712-.902-3.014-2.38-3.014-.761 0-1.305.345-1.685.857h-.033v-.69H50.5v7.574Zm2.914-3.104c-.761 0-1.196-.634-1.196-1.557 0-.923.391-1.624 1.163-1.624.76 0 1.12.645 1.12 1.624 0 .968-.413 1.557-1.087 1.557Zm5.766 1.401c1.456 0 2.532-.645 2.532-1.89 0-1.457-1.152-1.713-2.13-1.88-.707-.133-1.338-.189-1.338-.59 0-.355.337-.522.772-.522.49 0 .826.156.891.667h1.631c-.087-1.123-.935-1.824-2.511-1.824-1.316 0-2.403.623-2.403 1.824 0 1.335 1.033 1.602 2 1.769.74.133 1.414.189 1.414.7 0 .367-.337.568-.87.568-.587 0-.956-.278-1.022-.846h-1.674c.055 1.257 1.076 2.024 2.707 2.024Zm4.939-.011c.772 0 1.26-.311 1.663-.867h.033v.7h1.695V7.846h-1.772v3.181c0 .678-.37 1.146-.978 1.146-.565 0-.837-.345-.837-.968v-3.36h-1.76v3.737c0 1.268.673 2.124 1.956 2.124Zm4.161-.166h1.773v-3.192c0-.679.326-1.157.88-1.157.533 0 .783.356.783.967v3.382h1.772v-3.192c0-.679.315-1.157.88-1.157.533 0 .783.356.783.967v3.382h1.772V9.836c0-1.28-.63-2.158-1.892-2.158-.717 0-1.315.312-1.75 1.001h-.021c-.283-.611-.837-1-1.566-1-.804 0-1.337.389-1.685.978h-.032v-.812H68.28v5.695Z"/><path fill-rule="evenodd" d="M9.369 19.1c5.003 0 9.058-4.149 9.058-9.268 0-5.118-4.055-9.268-9.058-9.268S.309 4.714.309 9.832c0 5.119 4.057 9.268 9.06 9.268Zm2.826-14.218c.137-.5-.337-.796-.77-.48L5.38 8.808c-.47.342-.396 1.024.11 1.024h1.593V9.82h3.102l-2.528.912-1.114 4.051c-.138.5.336.796.77.48l6.045-4.406c.47-.343.395-1.025-.111-1.025h-2.414l1.362-4.95Z" clip-rule="evenodd"/></g><defs><clipPath id="a"><path fill="#fff" d="M0 .5h77v19H0z"/></clipPath></defs></svg>