<svg xmlns="http://www.w3.org/2000/svg" width="130" height="28" fill="none"><g fill="#0A0A0A" clip-path="url(#a)"><path fill-rule="evenodd" d="M11.08 19.6a3.8 3.8 0 0 1-2.612-1.025A3.41 3.41 0 0 1 7.386 16.1V0H0v16.1c0 5.799 4.96 10.5 11.08 10.5h8.124v-7H11.08ZM33.239 7c-.873 0-1.738.163-2.544.48-.807.316-1.54.78-2.157 1.365a6.289 6.289 0 0 0-1.441 2.044 6.009 6.009 0 0 0 0 4.821 6.289 6.289 0 0 0 1.441 2.045 6.683 6.683 0 0 0 2.157 1.365c.806.317 1.67.48 2.544.48 1.763 0 3.454-.664 4.7-1.845 1.247-1.182 1.947-2.784 1.947-4.455 0-1.67-.7-3.273-1.947-4.455C36.693 7.664 35.002 7 33.24 7Zm-14.034 6.3c0-7.345 6.283-13.3 14.034-13.3 7.75 0 14.034 5.955 14.034 13.3 0 7.345-6.284 13.3-14.034 13.3-7.75 0-14.034-5.955-14.034-13.3ZM113.01 7c-1.763 0-3.454.664-4.7 1.845-1.247 1.182-1.947 2.784-1.947 4.455 0 1.67.7 3.273 1.947 4.455 1.246 1.181 2.937 1.845 4.7 1.845 1.763 0 3.454-.664 4.701-1.845 1.247-1.182 1.947-2.784 1.947-4.455 0-1.67-.7-3.273-1.947-4.455-1.246-1.181-2.937-1.845-4.7-1.845Zm-14.034 6.3c0-7.345 6.284-13.3 14.034-13.3 7.751 0 14.034 5.955 14.034 13.3 0 7.345-6.283 13.3-14.034 13.3-7.75 0-14.034-5.955-14.034-13.3ZM62.784 0C55.034 0 48.75 5.955 48.75 13.3c0 7.345 6.284 13.3 14.034 13.3h20.682c1.454 0 2.857-.21 4.176-.6l3.949 2 4.26-7.563a12.754 12.754 0 0 0 1.649-6.254V13.3C97.5 5.955 91.216 0 83.466 0H62.784Zm27.33 13.3c0-1.67-.7-3.273-1.947-4.455C86.92 7.664 85.229 7 83.466 7H62.784c-.873 0-1.737.163-2.544.48-.806.316-1.54.78-2.157 1.365a6.289 6.289 0 0 0-1.44 2.044 6.009 6.009 0 0 0-.001 4.821 6.289 6.289 0 0 0 1.441 2.045 6.684 6.684 0 0 0 2.157 1.365c.807.317 1.671.48 2.544.48h20.682c1.754 0 3.437-.657 4.682-1.828 1.246-1.17 1.952-2.76 1.966-4.423V13.3Z" clip-rule="evenodd"/><path d="M130 1.75c0 .464-.195.91-.541 1.237a1.9 1.9 0 0 1-1.306.513c-.489 0-.959-.184-1.305-.513a1.702 1.702 0 0 1-.541-1.237c0-.464.194-.91.541-1.237A1.899 1.899 0 0 1 128.153 0c.49 0 .96.184 1.306.513.346.328.541.773.541 1.237Z"/></g><defs><clipPath id="a"><path fill="#fff" d="M0 0h130v28H0z"/></clipPath></defs></svg>