<svg xmlns="http://www.w3.org/2000/svg" width="181" height="44" fill="none"><path fill="#fff" fill-rule="evenodd" d="M7.426 5.5C3.325 5.5 0 8.783 0 12.833v18.334c0 4.05 3.325 7.333 7.426 7.333H25.99c4.1 0 7.425-3.283 7.425-7.333V12.833c0-4.05-3.324-7.333-7.425-7.333H7.426Zm0 4.583c-1.538 0-2.785 1.232-2.785 2.75v18.334c0 1.518 1.247 2.75 2.785 2.75h6.497c1.538 0 2.785-1.232 2.785-2.75V12.833c0-1.518-1.247-2.75-2.785-2.75H7.426Z" clip-rule="evenodd"/><path fill="#fff" d="M42.697 30.25V11h7.212c1.56 0 2.85.257 3.871.77s1.782 1.22 2.283 2.117c.502.899.752 1.907.752 3.026a6.118 6.118 0 0 1-.724 2.942c-.482.88-1.234 1.595-2.255 2.145-1.021.532-2.33.797-3.926.797h-3.648v7.453h-3.565Zm3.565-10.313h3.425c1.244 0 2.135-.265 2.673-.797.557-.55.835-1.293.835-2.227 0-.954-.278-1.696-.835-2.228-.538-.55-1.43-.825-2.673-.825h-3.425v6.078ZM63.778 30.58c-1.337 0-2.544-.302-3.62-.907a6.868 6.868 0 0 1-2.534-2.503c-.613-1.082-.92-2.328-.92-3.74 0-1.412.316-2.65.948-3.712a6.808 6.808 0 0 1 2.534-2.53c1.076-.605 2.283-.908 3.62-.908 1.318 0 2.506.302 3.564.907a6.55 6.55 0 0 1 2.534 2.53c.631 1.064.947 2.301.947 3.713s-.316 2.658-.947 3.74a6.604 6.604 0 0 1-2.534 2.502c-1.077.605-2.274.908-3.592.908Zm0-3.052c.928 0 1.735-.34 2.422-1.018.687-.697 1.03-1.723 1.03-3.08s-.343-2.374-1.03-3.052c-.687-.697-1.485-1.046-2.394-1.046-.947 0-1.764.349-2.45 1.046-.67.678-1.003 1.695-1.003 3.052s.334 2.383 1.002 3.08c.687.678 1.495 1.017 2.423 1.017Zm10.801 2.722L70.54 16.61h3.536l2.395 9.817 2.785-9.817h3.954l2.784 9.817 2.423-9.817h3.536L87.89 30.25h-3.704l-2.951-10.203-2.952 10.203H74.58Zm24.175.33c-1.393 0-2.627-.293-3.704-.88a6.408 6.408 0 0 1-2.534-2.475c-.612-1.063-.919-2.292-.919-3.685 0-1.412.297-2.668.892-3.767a6.551 6.551 0 0 1 2.505-2.558c1.077-.623 2.34-.935 3.787-.935 1.356 0 2.553.293 3.593.88a6.233 6.233 0 0 1 2.422 2.42c.594 1.008.891 2.136.891 3.383 0 .201-.009.412-.028.632 0 .22-.009.45-.027.688H95.134c.074 1.063.445 1.897 1.113 2.502.687.605 1.513.907 2.479.907.724 0 1.327-.155 1.81-.467a3.06 3.06 0 0 0 1.114-1.265h3.62a6.496 6.496 0 0 1-1.309 2.365 6.286 6.286 0 0 1-2.228 1.65c-.872.403-1.866.605-2.98.605Zm.027-11.44c-.872 0-1.643.247-2.31.742-.67.477-1.096 1.21-1.282 2.2h6.878c-.055-.898-.39-1.613-1.002-2.145-.613-.531-1.374-.797-2.284-.797Zm8.234 11.11V16.61h3.174l.334 2.558a5.666 5.666 0 0 1 2.033-2.09c.873-.532 1.894-.798 3.063-.798v3.712h-1.002c-.78 0-1.476.12-2.089.358a2.874 2.874 0 0 0-1.448 1.237c-.334.587-.501 1.403-.501 2.448v6.215h-3.564Zm15.078.33c-1.225 0-2.302-.192-3.23-.577-.928-.404-1.671-.954-2.227-1.65a4.702 4.702 0 0 1-1.003-2.42h3.592c.112.531.409.99.891 1.375.502.366 1.142.55 1.922.55.779 0 1.346-.156 1.698-.468.372-.312.557-.67.557-1.073 0-.586-.26-.98-.779-1.182-.52-.22-1.244-.43-2.172-.633a23.732 23.732 0 0 1-1.81-.467 9.358 9.358 0 0 1-1.699-.688 3.913 3.913 0 0 1-1.225-1.1c-.316-.458-.474-1.017-.474-1.677 0-1.21.483-2.227 1.448-3.053.984-.825 2.358-1.237 4.122-1.237 1.633 0 2.933.376 3.898 1.127.984.752 1.569 1.788 1.754 3.108h-3.369c-.204-1.008-.975-1.512-2.311-1.512-.669 0-1.188.128-1.56.384-.352.257-.529.578-.529.963 0 .403.269.724.808.962.538.239 1.253.459 2.144.66.965.22 1.847.468 2.645.743.817.257 1.467.65 1.95 1.183.482.513.724 1.255.724 2.227a3.8 3.8 0 0 1-.669 2.282c-.464.679-1.132 1.21-2.005 1.596-.872.384-1.903.577-3.091.577Zm12.43 0c-1.727 0-3.063-.532-4.01-1.595-.928-1.063-1.392-2.622-1.392-4.675v-7.7h3.536v7.37c0 1.173.242 2.072.724 2.695.483.623 1.244.935 2.284.935.983 0 1.791-.348 2.422-1.045.65-.697.975-1.668.975-2.915v-7.04h3.564v13.64h-3.147l-.278-2.31a4.796 4.796 0 0 1-1.866 1.925c-.798.477-1.735.715-2.812.715Zm10.091-.33V16.61h3.175l.334 2.558a5.666 5.666 0 0 1 2.033-2.09c.872-.532 1.893-.798 3.063-.798v3.712h-1.003c-.779 0-1.475.12-2.088.358a2.87 2.87 0 0 0-1.448 1.237c-.334.587-.501 1.403-.501 2.448v6.215h-3.565Zm14.892-4.07a7.532 7.532 0 0 1-1.866-.22l-1.03 1.017c.315.165.742.303 1.28.413.539.11 1.411.22 2.618.33 1.838.165 3.174.596 4.01 1.293.835.696 1.253 1.659 1.253 2.887 0 .807-.223 1.568-.668 2.282-.446.734-1.133 1.32-2.061 1.76-.928.459-2.116.688-3.564.688-1.968 0-3.555-.367-4.762-1.1-1.207-.715-1.81-1.797-1.81-3.245 0-1.228.603-2.292 1.81-3.19a6.83 6.83 0 0 1-.975-.522 5.467 5.467 0 0 1-.696-.578v-.633l2.423-2.53c-1.077-.934-1.615-2.135-1.615-3.602 0-.917.223-1.75.668-2.503.464-.751 1.114-1.347 1.949-1.787.836-.44 1.847-.66 3.036-.66.779 0 1.503.11 2.172.33h5.235v2.145l-2.367.165c.371.697.557 1.467.557 2.31 0 .917-.223 1.75-.669 2.503-.445.751-1.095 1.347-1.949 1.787-.835.44-1.828.66-2.979.66Zm0-2.695c.724 0 1.318-.192 1.782-.578.482-.384.724-.934.724-1.65 0-.715-.242-1.265-.724-1.65-.464-.384-1.058-.577-1.782-.577-.762 0-1.374.192-1.838.578-.464.384-.696.934-.696 1.65 0 .715.232 1.265.696 1.65.464.384 1.076.577 1.838.577Zm-3.342 8.442c0 .679.316 1.183.947 1.513.65.348 1.438.523 2.367.523.891 0 1.615-.184 2.172-.55.557-.349.835-.825.835-1.43a1.59 1.59 0 0 0-.557-1.238c-.353-.33-1.067-.532-2.144-.605a22.35 22.35 0 0 1-2.116-.248c-.539.294-.929.615-1.17.963a1.965 1.965 0 0 0-.334 1.072Zm17.844-1.347c-1.393 0-2.627-.293-3.704-.88a6.417 6.417 0 0 1-2.534-2.475c-.612-1.063-.919-2.292-.919-3.685 0-1.412.297-2.668.891-3.767.613-1.1 1.448-1.953 2.507-2.558 1.076-.623 2.339-.935 3.787-.935 1.355 0 2.552.293 3.592.88a6.233 6.233 0 0 1 2.422 2.42c.594 1.008.891 2.136.891 3.383 0 .201-.009.412-.027.632 0 .22-.01.45-.028.688h-10.498c.074 1.063.445 1.897 1.114 2.502.686.605 1.513.907 2.478.907.724 0 1.327-.155 1.81-.467a3.06 3.06 0 0 0 1.114-1.265h3.62a6.482 6.482 0 0 1-1.309 2.365 6.286 6.286 0 0 1-2.228 1.65c-.872.403-1.865.605-2.979.605Zm.028-11.44c-.873 0-1.643.247-2.312.742-.668.477-1.095 1.21-1.281 2.2h6.878c-.055-.898-.389-1.613-1.002-2.145-.613-.531-1.374-.797-2.283-.797Z"/></svg>