<svg xmlns="http://www.w3.org/2000/svg" width="181" height="44" fill="none"><path fill="#fff" fill-rule="evenodd" d="M16.504 30.44A3.902 3.902 0 0 1 19.523 29h15.842c4.34 0 7.859-3.581 7.859-8v-4c0-4.418-3.519-8-7.859-8h-3.071a3.902 3.902 0 0 0-3.019 1.44l-2.555 3.12A3.902 3.902 0 0 1 23.7 15H7.86C3.519 15 0 18.582 0 23v4c0 4.419 3.519 8 7.859 8h3.071a3.902 3.902 0 0 0 3.019-1.44l2.555-3.12ZM37.33 17c0-1.104-.88-2-1.965-2h-6.018a3.902 3.902 0 0 0-3.02 1.44l-2.555 3.121a3.902 3.902 0 0 1-3.018 1.44H7.859c-1.085 0-1.965.895-1.965 2v4c0 1.104.88 2 1.965 2h6.018a3.902 3.902 0 0 0 3.019-1.44l2.555-3.122A3.902 3.902 0 0 1 22.47 23h12.895c1.085 0 1.965-.895 1.965-2v-4Z" clip-rule="evenodd"/><path fill="#fff" d="m67.668 30.25-2.699-9.677-.389-1.782-.413 1.782-2.675 9.677h-4.376l-4.887-16.83h4.157l2.65 11.039.438 2.004.438-2.004 3.063-11.039h3.404l3.04 11.039.437 2.004.438-2.004 2.65-11.039h3.939l-4.887 16.83h-4.328Zm13.074-8.91h-3.72c.389-2.995 2.65-4.826 6.005-4.826 3.745 0 5.69 2.227 5.69 5.321v5.099c0 1.732.145 2.623.364 3.316H85.24c-.122-.445-.195-1.015-.22-1.658-1.02 1.435-2.576 2.054-4.132 2.054-2.48 0-4.328-1.287-4.328-3.836 0-1.807 1.021-3.193 3.088-3.935 1.702-.57 3.33-.743 5.349-.768v-.297c0-1.46-.706-2.227-2.14-2.227-1.264 0-1.945.718-2.115 1.757Zm-.462 5.222c0 .891.656 1.46 1.75 1.46 1.654 0 2.967-1.36 2.967-3.192v-.52c-3.769.074-4.717 1.015-4.717 2.252Zm10.598 3.688V16.935h3.72v1.856c.827-1.584 2.091-2.277 3.428-2.277.535 0 1.022.148 1.289.42v3.193a6.542 6.542 0 0 0-1.483-.148c-2.237 0-3.234 1.287-3.234 3.39v6.881h-3.72Zm13.159 5.47h-3.72V16.935h3.72v1.386c.803-1.164 1.921-1.807 3.283-1.807 3.379 0 5.494 2.698 5.494 7.054 0 4.529-2.164 7.078-5.494 7.078-1.386 0-2.505-.594-3.283-1.732v6.806Zm2.505-16.137c-1.654 0-2.505 1.41-2.505 3.985 0 2.574.876 4.01 2.505 4.01 1.604 0 2.455-1.412 2.455-4.01 0-2.574-.875-3.985-2.455-3.985Zm10.982 1.039c0 2.624 8.096.322 8.096 5.594 0 2.623-2.382 4.43-5.786 4.43-3.307 0-5.69-1.485-6.176-4.777h3.72c.17 1.238 1.167 1.906 2.553 1.906 1.313 0 1.969-.52 1.969-1.336 0-2.574-7.926-.273-7.926-5.619 0-2.227 1.775-4.306 5.276-4.306 3.137 0 5.519 1.46 5.884 4.826h-3.696c-.218-1.361-.996-1.93-2.309-1.93-.973 0-1.605.495-1.605 1.212Zm13.201 15.098h-3.72V16.935h3.72v1.386c.803-1.164 1.921-1.807 3.283-1.807 3.379 0 5.494 2.698 5.494 7.054 0 4.529-2.164 7.078-5.494 7.078-1.386 0-2.505-.594-3.283-1.732v6.806Zm2.504-16.137c-1.653 0-2.504 1.41-2.504 3.985 0 2.574.875 4.01 2.504 4.01 1.605 0 2.456-1.412 2.456-4.01 0-2.574-.875-3.985-2.456-3.985Zm20.077 6.287c-.681 3.068-3.112 4.776-6.321 4.776-4.061 0-6.565-2.673-6.565-7.054 0-4.529 2.529-7.078 6.419-7.078 3.914 0 6.37 2.648 6.37 7.004v.842h-8.996c.194 2.128 1.167 3.267 2.772 3.267 1.215 0 2.042-.545 2.431-1.758h3.89Zm-6.467-6.337c-1.386 0-2.261.916-2.553 2.649h5.081c-.292-1.733-1.167-2.649-2.528-2.649Zm20.251 6.337c-.681 3.068-3.112 4.776-6.322 4.776-4.06 0-6.564-2.673-6.564-7.054 0-4.529 2.528-7.078 6.419-7.078 3.914 0 6.37 2.648 6.37 7.004v.842h-8.996c.194 2.128 1.167 3.267 2.771 3.267 1.216 0 2.043-.545 2.432-1.758h3.89Zm-6.467-6.337c-1.386 0-2.262.916-2.553 2.649h5.081c-.292-1.733-1.167-2.649-2.528-2.649Zm12.834 11.113c-3.355 0-5.47-2.673-5.47-7.054 0-4.529 2.164-7.078 5.47-7.078 1.386 0 2.505.594 3.307 1.732V12.43h3.72v17.82h-3.72v-1.41c-.802 1.163-1.945 1.806-3.307 1.806Zm.803-3.069c1.653 0 2.504-1.386 2.504-3.985 0-2.574-.875-4.01-2.504-4.01-1.605 0-2.456 1.412-2.456 4.01 0 2.574.875 3.985 2.456 3.985Z"/></svg>