<svg xmlns="http://www.w3.org/2000/svg" width="174" height="46" fill="none"><g fill="#fff" clip-path="url(#a)"><path d="M16.665 4.777a3.15 3.15 0 0 1 4.496 0l4.495 4.556a3.252 3.252 0 0 1 0 4.556l-4.495 4.555a3.149 3.149 0 0 1-4.496 0L12.17 13.89a3.252 3.252 0 0 1 0-4.556l4.495-4.556Zm11.239 11.389a3.15 3.15 0 0 1 4.496 0l4.495 4.556a3.252 3.252 0 0 1 0 4.556L32.4 29.834a3.15 3.15 0 0 1-4.496 0l-4.495-4.556a3.252 3.252 0 0 1 0-4.556l4.495-4.556Zm-22.477 0a3.15 3.15 0 0 1 4.495 0l4.495 4.556a3.252 3.252 0 0 1 0 4.556l-4.495 4.556a3.15 3.15 0 0 1-4.495 0L.93 25.278a3.252 3.252 0 0 1 0-4.556l4.496-4.556Zm11.238 11.39a3.149 3.149 0 0 1 4.496 0l4.495 4.556a3.252 3.252 0 0 1 0 4.555l-4.495 4.556a3.149 3.149 0 0 1-4.496 0l-4.495-4.556a3.252 3.252 0 0 1 0-4.555l4.495-4.556Zm30.618 4.069V12.8h5.597l3.067 8.768c.35 1.112.935 3.095 1.384 4.713a245.159 245.159 0 0 1 1.371-4.713l3.03-8.768h5.598v18.825h-3.753V22.68c0-1.314.075-3.55.125-5.622-.636 2.198-1.284 4.422-1.683 5.622l-3.142 8.945H55.76l-3.179-8.945c-.386-1.162-1.01-3.247-1.646-5.357.05 1.996.113 4.106.113 5.357v8.945h-3.765Zm26.268.227c-2.63 0-4.525-1.326-4.525-3.992 0-3.007 2.394-3.866 5.136-4.119 2.406-.24 3.254-.354 3.254-1.213v-.088c0-.986-.81-1.668-2.157-1.668-1.371 0-2.269.708-2.356 1.731H69.45c.162-2.754 2.306-4.498 5.922-4.498 3.603 0 5.672 1.719 5.672 4.574v9.046h-3.59v-1.883h-.05c-.698 1.302-1.833 2.11-3.853 2.11Zm1.023-2.59c1.77 0 2.867-1.073 2.867-2.514V25.41c-.424.24-1.459.417-2.643.606-1.26.19-2.257.683-2.257 1.744 0 .947.798 1.503 2.033 1.503ZM88.6 31.953c-3.416 0-5.872-1.655-6.097-4.523h3.616c.137 1.163.985 1.858 2.418 1.858 1.36 0 2.194-.582 2.194-1.403 0-.707-.635-1.124-1.708-1.339l-2.306-.455c-2.556-.505-3.915-1.82-3.915-3.891 0-2.527 2.157-4.195 5.586-4.195 3.403 0 5.647 1.731 5.722 4.51h-3.403c-.025-1.073-.923-1.87-2.22-1.87-1.259 0-2.02.62-2.02 1.416 0 .682.587 1.124 1.597 1.34l2.493.492c2.655.53 3.877 1.693 3.877 3.651 0 2.666-2.394 4.41-5.834 4.41Zm15.123-13.67v2.919h-2.693v6.304c0 .91.286 1.2 1.284 1.2h1.409v2.919h-2.145c-2.892 0-4.226-1.112-4.226-3.538v-6.885h-2.27v-2.919h2.27v-3.639h3.678v3.64h2.693Zm7.157 13.645c-3.99 0-6.583-2.906-6.583-6.961 0-4.069 2.68-6.987 6.458-6.987 3.877 0 6.482 2.843 6.482 6.91v.999h-9.363c.063 1.971 1.185 3.247 3.117 3.247 1.434 0 2.419-.67 2.756-1.706h3.353c-.486 2.654-3.029 4.498-6.22 4.498Zm-2.98-8.414h5.871c-.187-1.668-1.284-2.704-2.942-2.704-1.645 0-2.73 1.036-2.929 2.704Zm10.796 8.111V18.283h3.541v2.274h.038c.486-1.604 1.483-2.362 3.216-2.362.425 0 .786.012 1.085.025v3.171c-.275-.012-.96-.063-1.583-.063-1.509 0-2.619 1.061-2.619 3.07v7.227h-3.678Zm9.214 0V18.283h3.541v2.4c.785-1.806 2.319-2.678 3.989-2.678 1.77 0 3.254.973 3.803 2.603.685-1.63 2.306-2.603 4.213-2.603 2.532 0 4.414 1.719 4.414 4.776v8.844h-3.666v-8.162c0-1.604-.972-2.388-2.23-2.388-1.422 0-2.307 1.024-2.307 2.515v8.035h-3.541v-8.263c0-1.39-.898-2.287-2.182-2.287-1.309 0-2.356.96-2.356 2.679v7.871h-3.678Zm26.082.227c-2.631 0-4.526-1.326-4.526-3.992 0-3.007 2.394-3.866 5.137-4.119 2.407-.24 3.254-.354 3.254-1.213v-.088c0-.986-.811-1.668-2.157-1.668-1.371 0-2.269.708-2.356 1.731h-3.453c.161-2.754 2.306-4.498 5.921-4.498 3.603 0 5.672 1.719 5.672 4.574v9.046h-3.589v-1.883h-.05c-.698 1.302-1.833 2.11-3.853 2.11Zm1.022-2.59c1.77 0 2.867-1.073 2.867-2.514V25.41c-.423.24-1.458.417-2.643.606-1.258.19-2.256.683-2.256 1.744 0 .947.798 1.503 2.032 1.503Zm8.554 2.363V18.283h3.677v13.342h-3.677Zm1.832-15.022c-1.209 0-2.094-.847-2.094-1.984s.885-1.983 2.094-1.983c1.209 0 2.094.846 2.094 1.983s-.885 1.984-2.094 1.984Zm7.617-3.803v18.825h-3.677V12.8h3.677Z"/></g><defs><clipPath id="a"><path fill="#fff" d="M0 0h174v46H0z"/></clipPath></defs></svg>