<svg xmlns="http://www.w3.org/2000/svg" width="86" height="22" fill="none"><path fill="#A4A4A4" d="M29.201 15.843a1.737 1.737 0 0 1-1.075-.302.987.987 0 0 1-.307-.363.961.961 0 0 1-.099-.46V8.89a.16.16 0 0 1 .048-.136.168.168 0 0 1 .139-.046h1.082c.122 0 .18.063.18.182v5.374c0 .24.11.358.335.358a.946.946 0 0 0 .283-.03c.129 0 .2.037.206.15l.097.786a.158.158 0 0 1-.032.131.166.166 0 0 1-.123.063 2.478 2.478 0 0 1-.734.12Zm6.085-.673a3.078 3.078 0 0 1-1.931.679c-.705 0-1.389-.24-1.932-.679a2.484 2.484 0 0 1-.746-1.769c0-.663.268-1.299.746-1.77a3.092 3.092 0 0 1 1.932-.674c.704 0 1.387.238 1.931.675a2.52 2.52 0 0 1 .728 1.766 2.52 2.52 0 0 1-.728 1.766v.006Zm-2.846-.83c.253.224.58.347.921.347.34 0 .669-.123.92-.346a1.382 1.382 0 0 0 .001-1.848 1.393 1.393 0 0 0-1.842 0 1.39 1.39 0 0 0-.354.924c0 .34.126.668.354.924Zm9.53-3.224c.123 0 .18.063.18.182v4.507c.012.305-.046.607-.17.887-.124.28-.31.528-.544.729-.52.433-1.19.658-1.874.628a3.068 3.068 0 0 1-1.745-.471 1.908 1.908 0 0 1-.556-.543 1.859 1.859 0 0 1-.288-.714c0-.126 0-.183.174-.183h1.082a.241.241 0 0 1 .213.145c.07.19.21.35.392.446.223.112.471.169.722.164a1.166 1.166 0 0 0 .83-.29 1.066 1.066 0 0 0 .303-.785v-.396a2.194 2.194 0 0 1-1.34.408 2.555 2.555 0 0 1-.985-.16 2.507 2.507 0 0 1-.843-.525 2.483 2.483 0 0 1-.724-1.747c0-.652.26-1.279.724-1.748a2.53 2.53 0 0 1 .844-.52c.314-.116.649-.17.985-.159a2.2 2.2 0 0 1 1.371.434v-.1a.16.16 0 0 1 .046-.133.168.168 0 0 1 .134-.05l1.07-.006Zm-2.498 3.595a1.156 1.156 0 0 0 .882-.37 1.516 1.516 0 0 0 0-1.886 1.127 1.127 0 0 0-.876-.365 1.182 1.182 0 0 0-.895.371 1.314 1.314 0 0 0-.347.943c-.012.343.11.678.34.937a1.167 1.167 0 0 0 .896.37Zm8.236.459a3.092 3.092 0 0 1-1.932.675 3.092 3.092 0 0 1-1.932-.675 2.527 2.527 0 0 1-.727-1.77c0-.658.26-1.292.727-1.768a3.099 3.099 0 0 1 1.932-.673 3.1 3.1 0 0 1 1.932.673 2.52 2.52 0 0 1 .727 1.766 2.52 2.52 0 0 1-.727 1.766v.006Zm-2.853-.83a1.291 1.291 0 0 0 .928.346 1.318 1.318 0 0 0 .92-.345 1.404 1.404 0 0 0 0-1.848 1.292 1.292 0 0 0-.92-.346 1.315 1.315 0 0 0-.928.346 1.407 1.407 0 0 0-.347.924c0 .338.123.666.347.924Zm5.905-4.293a.947.947 0 0 1-1.23 0 .76.76 0 0 1-.244-.553.746.746 0 0 1 .244-.553.967.967 0 0 1 1.23 0 .76.76 0 0 1 .245.553.745.745 0 0 1-.245.553Zm.135 5.796a1.763 1.763 0 0 1-1.075-.302.998.998 0 0 1-.302-.364.973.973 0 0 1-.097-.46v-3.419a.158.158 0 0 1 .048-.135.172.172 0 0 1 .139-.047h1.081c.123 0 .18.063.18.182v2.967c0 .24.11.358.33.358.097.004.194-.007.289-.03.129 0 .2.037.206.15l.096.786a.16.16 0 0 1-.031.131.165.165 0 0 1-.123.063 2.493 2.493 0 0 1-.74.12Zm4.875-4.878a2.57 2.57 0 0 1 1.841.679c.456.477.71 1.105.71 1.757 0 .652-.254 1.28-.71 1.757a2.51 2.51 0 0 1-.848.527 2.557 2.557 0 0 1-.993.158 2.253 2.253 0 0 1-1.346-.409v2.27c0 .119-.064.175-.187.175h-1.081a.159.159 0 0 1-.138-.041.15.15 0 0 1-.043-.135V12.55a.32.32 0 0 0-.094-.278.336.336 0 0 0-.286-.093h-.212c-.142 0-.213-.05-.213-.15v-.742a.197.197 0 0 1 .037-.13.205.205 0 0 1 .112-.078c.222-.079.458-.117.695-.113.236-.02.473.029.681.14.208.113.377.283.484.489a2.218 2.218 0 0 1 1.59-.629Zm-1.005 3.376a1.232 1.232 0 0 0 .89.37 1.255 1.255 0 0 0 .888-.37c.242-.264.369-.609.354-.962a1.32 1.32 0 0 0-.354-.962 1.232 1.232 0 0 0-.889-.37 1.256 1.256 0 0 0-.889.37 1.37 1.37 0 0 0-.34.962c-.014.35.108.694.34.962Zm6.595 1.502a3.164 3.164 0 0 1-1.655-.39 1.556 1.556 0 0 1-.504-.473 1.512 1.512 0 0 1-.243-.64c0-.125.045-.188.186-.188h.947a.248.248 0 0 1 .212.138c.136.34.49.51 1.056.51.198.008.395-.03.573-.114a.371.371 0 0 0 .22-.308c0-.163-.104-.276-.31-.352a3.556 3.556 0 0 0-.753-.157 7.31 7.31 0 0 1-.902-.157 1.49 1.49 0 0 1-.753-.421 1.333 1.333 0 0 1-.295-1.033 1.333 1.333 0 0 1 .572-.916 2.703 2.703 0 0 1 1.558-.402 2.901 2.901 0 0 1 1.52.37c.186.104.346.246.468.416.123.171.205.366.24.572 0 .126-.058.188-.174.188h-.953a.204.204 0 0 1-.114-.027.197.197 0 0 1-.079-.086.637.637 0 0 0-.335-.333 1.157 1.157 0 0 0-.553-.126 1.145 1.145 0 0 0-.548.107.322.322 0 0 0-.148.114.309.309 0 0 0-.058.175.397.397 0 0 0 .092.236.413.413 0 0 0 .217.135c.248.091.505.155.767.189.3.039.6.093.895.163.288.064.55.21.753.421a1.183 1.183 0 0 1 .316.861c.005.218-.047.433-.152.625a1.27 1.27 0 0 1-.447.47 2.865 2.865 0 0 1-1.617.433Zm9.021-.314a.166.166 0 0 1-.083.172.176.176 0 0 1-.065.022 2.54 2.54 0 0 1-.728.12 1.46 1.46 0 0 1-.717-.108 1.421 1.421 0 0 1-.57-.439 2.367 2.367 0 0 1-1.643.547 2.038 2.038 0 0 1-1.507-.572 2.053 2.053 0 0 1-.444-.7 2.017 2.017 0 0 1-.129-.815v-2.458c0-.12.058-.182.18-.182h1.082c.123 0 .18.063.18.182v2.27c-.01.282.088.559.278.773a.97.97 0 0 0 .74.295 1.092 1.092 0 0 0 .773-.276 1.002 1.002 0 0 0 .29-.748v-2.314c0-.12.058-.182.18-.182h1.095c.122 0 .18.063.18.182v2.96c0 .246.11.366.322.366.1.003.2-.007.296-.032a.17.17 0 0 1 .193.08.167.167 0 0 1 .02.07l.077.787Zm10.232 0a.155.155 0 0 1-.08.176.16.16 0 0 1-.068.018c-.24.076-.489.117-.74.12a1.75 1.75 0 0 1-1.076-.302.988.988 0 0 1-.321-.359.96.96 0 0 1-.11-.464V13.24a1.095 1.095 0 0 0-.27-.774.917.917 0 0 0-.722-.295.825.825 0 0 0-.644.277 1.1 1.1 0 0 0-.244.741v2.32c0 .12-.058.182-.18.182h-1.089a.17.17 0 0 1-.14-.047.161.161 0 0 1-.047-.135v-2.27a1.145 1.145 0 0 0-.25-.773.835.835 0 0 0-.645-.295.954.954 0 0 0-.708.277c-.184.204-.279.47-.264.741v2.32a.158.158 0 0 1-.048.135.17.17 0 0 1-.139.047h-1.05c-.122 0-.18-.063-.18-.182v-2.96a.32.32 0 0 0-.095-.279.334.334 0 0 0-.285-.093h-.212c-.142 0-.213-.05-.213-.15v-.742a.198.198 0 0 1 .037-.13.206.206 0 0 1 .111-.078c.223-.079.459-.117.696-.113a1.24 1.24 0 0 1 .659.128 1.2 1.2 0 0 1 .487.45 2.225 2.225 0 0 1 1.636-.578c.29-.014.58.04.844.155.266.116.499.291.682.512a2.13 2.13 0 0 1 .767-.519 2.17 2.17 0 0 1 .92-.148 2.08 2.08 0 0 1 1.526.572c.196.202.347.44.446.7a2 2 0 0 1 .127.815v1.213c0 .24.11.358.316.358.1.005.2-.005.296-.03.133 0 .204.05.212.15l.058.786Zm-75.508-5.23a8.59 8.59 0 0 1 3.126-4.702A8.954 8.954 0 0 1 13.66 3.77c1.967 0 3.878.643 5.429 1.826a8.59 8.59 0 0 1 3.125 4.702h-.772a6.348 6.348 0 0 0-3.651 1.087 1.851 1.851 0 0 1-.194.12h-.09a1.851 1.851 0 0 1-.193-.12A6.662 6.662 0 0 0 13.66 10.3a6.663 6.663 0 0 0-3.655 1.087 1.833 1.833 0 0 1-.193.12h-.09a1.839 1.839 0 0 1-.193-.12A6.348 6.348 0 0 0 5.878 10.3h-.773Zm14.946 3.941c.397-.301.888-.46 1.39-.446h1.037v-2.018h-1.036a4.178 4.178 0 0 0-2.467.767c-.402.29-.89.446-1.39.446-.501 0-.989-.156-1.391-.446a4.454 4.454 0 0 0-2.502-.766c-.895 0-1.768.267-2.502.766a2.38 2.38 0 0 1-1.39.446c-.501 0-.989-.156-1.392-.446a4.178 4.178 0 0 0-2.498-.767H4.84v2.018h1.038c.502-.013.994.145 1.39.446a4.44 4.44 0 0 0 2.5.767 4.44 4.44 0 0 0 2.498-.767 2.22 2.22 0 0 1 1.39-.446c.503-.014.995.144 1.391.446a4.453 4.453 0 0 0 2.502.766c.895 0 1.768-.267 2.502-.766Zm0 3.608c.397-.301.888-.46 1.39-.446h1.037v-2.018h-1.036a4.178 4.178 0 0 0-2.467.767c-.402.29-.89.446-1.39.446-.501 0-.989-.156-1.391-.446a4.454 4.454 0 0 0-2.502-.766c-.895 0-1.768.267-2.502.766a2.38 2.38 0 0 1-1.39.446c-.501 0-.989-.156-1.392-.446a4.178 4.178 0 0 0-2.498-.767H4.84v2.018h1.038c.502-.013.994.145 1.39.446a4.44 4.44 0 0 0 2.5.767 4.44 4.44 0 0 0 2.498-.767 2.22 2.22 0 0 1 1.39-.446c.503-.014.995.144 1.391.446a4.453 4.453 0 0 0 2.502.766c.895 0 1.768-.267 2.502-.766Z"/></svg>