<svg xmlns="http://www.w3.org/2000/svg" width="164" height="42" fill="none"><path fill="#fff" fill-rule="evenodd" d="M29.978 24.5h-5.592a3.54 3.54 0 0 0-2.494 1.025l-1.461 1.45A3.54 3.54 0 0 1 17.937 28h-5.593c-2.922 0-5.29-2.35-5.29-5.25s2.368-5.25 5.29-5.25h5.593a3.54 3.54 0 0 0 2.494-1.025l1.46-1.45A3.54 3.54 0 0 1 24.387 14h5.592c2.922 0 5.29 2.35 5.29 5.25s-2.368 5.25-5.29 5.25Zm-5.592-7a3.54 3.54 0 0 0-2.494 1.025l-1.461 1.45A3.54 3.54 0 0 1 17.937 21h-5.593c-.974 0-1.763.784-1.763 1.75s.79 1.75 1.763 1.75h5.593a3.54 3.54 0 0 0 2.494-1.025l1.46-1.45A3.54 3.54 0 0 1 24.387 21h5.592c.974 0 1.764-.784 1.764-1.75s-.79-1.75-1.764-1.75h-5.592Z" clip-rule="evenodd"/><path fill="#fff" fill-rule="evenodd" d="M29.979 31.5h-5.593a3.54 3.54 0 0 0-2.494 1.025l-1.461 1.45A3.54 3.54 0 0 1 17.937 35h-5.593C5.527 35 0 29.515 0 22.75S5.527 10.5 12.344 10.5h5.593a3.54 3.54 0 0 0 2.494-1.025l1.46-1.45A3.54 3.54 0 0 1 24.387 7h5.593c6.817 0 12.344 5.485 12.344 12.25S36.796 31.5 29.978 31.5Zm-5.593-21a3.54 3.54 0 0 0-2.494 1.025l-1.461 1.45A3.54 3.54 0 0 1 17.937 14h-5.593c-4.87 0-8.817 3.918-8.817 8.75s3.947 8.75 8.817 8.75h5.593a3.54 3.54 0 0 0 2.494-1.025l1.46-1.45A3.54 3.54 0 0 1 24.387 28h5.593c4.87 0 8.817-3.918 8.817-8.75s-3.948-8.75-8.817-8.75h-5.593Z" clip-rule="evenodd"/><path fill="#fff" d="M51.14 28.875V12.668h13.046v2.883H54.71v3.614h8.38v2.859h-8.38v3.945h9.618v2.906h-13.19Zm15.013 4.205V16.448h2.713l.286 1.678h.167c.412-.678.952-1.174 1.619-1.489.666-.315 1.404-.472 2.214-.472 1.047 0 1.944.228 2.69.685.762.457 1.34 1.165 1.738 2.126.412.96.619 2.197.619 3.71 0 1.464-.207 2.677-.62 3.637-.412.961-.991 1.678-1.737 2.15-.73.457-1.587.686-2.571.686-.54 0-1.04-.063-1.5-.19a3.654 3.654 0 0 1-2.166-1.464h-.143v5.575h-3.31Zm5.975-6.615c.667 0 1.19-.126 1.571-.378.397-.267.683-.661.857-1.181.175-.535.262-1.19.262-1.96v-.544c0-.788-.087-1.441-.262-1.961-.174-.536-.46-.93-.857-1.181-.38-.268-.904-.402-1.571-.402-.619 0-1.127.142-1.524.425-.396.284-.69.693-.88 1.229-.19.535-.286 1.181-.286 1.937v.402c0 .55.055 1.055.166 1.512.112.44.27.819.477 1.134.222.315.5.559.833.732.333.158.738.236 1.214.236Zm7.556 2.41v-17.08h3.31v6.023h.166c.27-.33.587-.614.952-.85a4.852 4.852 0 0 1 1.262-.59 5.404 5.404 0 0 1 1.547-.213c.825 0 1.547.15 2.166.449.62.299 1.095.771 1.429 1.417.349.646.523 1.488.523 2.528v8.316h-3.308v-7.796c0-.394-.048-.725-.143-.993a1.587 1.587 0 0 0-.429-.685 1.432 1.432 0 0 0-.666-.401 3.223 3.223 0 0 0-.905-.118c-.492 0-.936.118-1.333.354-.397.236-.706.56-.928.969-.223.41-.334.882-.334 1.417v7.253h-3.309Zm19.059.284c-1.38 0-2.54-.229-3.476-.686a4.655 4.655 0 0 1-2.118-2.15c-.477-.96-.715-2.18-.715-3.661 0-1.497.238-2.717.715-3.662.476-.961 1.174-1.67 2.094-2.127.937-.472 2.08-.708 3.429-.708 1.27 0 2.341.228 3.213.685.873.44 1.532 1.134 1.976 2.079.445.93.667 2.134.667 3.615v.85h-8.737c.032.725.143 1.339.333 1.843.207.504.516.882.929 1.134.428.236.992.354 1.69.354.38 0 .722-.047 1.024-.142.317-.094.587-.236.809-.425.222-.189.397-.425.524-.709.127-.283.19-.606.19-.968h3.238c0 .787-.143 1.472-.429 2.055a4.117 4.117 0 0 1-1.19 1.465c-.508.378-1.119.67-1.833.874-.698.189-1.476.284-2.333.284Zm-2.904-7.844h5.285c0-.473-.064-.882-.191-1.229a2.214 2.214 0 0 0-.476-.85 1.73 1.73 0 0 0-.762-.473 2.697 2.697 0 0 0-.976-.165c-.603 0-1.11.103-1.523.307a2.038 2.038 0 0 0-.929.898c-.206.394-.349.898-.428 1.512Zm10.164 7.56V16.448h2.738l.262 1.701h.166c.27-.41.588-.764.953-1.063.38-.3.801-.527 1.261-.685a4.821 4.821 0 0 1 1.524-.236c.793 0 1.476.157 2.047.472.588.315 1.04.82 1.357 1.512h.167c.27-.41.595-.764.976-1.063a4.14 4.14 0 0 1 1.309-.685 5.126 5.126 0 0 1 1.572-.236c.793 0 1.476.142 2.047.425.587.284 1.047.748 1.381 1.394.333.63.5 1.449.5 2.457v8.434h-3.309v-7.843c0-.394-.048-.725-.143-.993-.08-.283-.199-.504-.357-.661a1.381 1.381 0 0 0-.596-.378 2.407 2.407 0 0 0-.761-.118c-.445 0-.842.118-1.191.354a2.5 2.5 0 0 0-.833.969c-.19.41-.286.882-.286 1.417v7.253h-3.309v-7.843c0-.394-.047-.725-.143-.993-.079-.283-.198-.504-.357-.661a1.372 1.372 0 0 0-.595-.378 2.272 2.272 0 0 0-.762-.118 2.15 2.15 0 0 0-1.19.354 2.5 2.5 0 0 0-.833.969c-.191.41-.286.882-.286 1.417v7.253h-3.309Zm25.94.284c-1.38 0-2.539-.229-3.475-.686a4.652 4.652 0 0 1-2.119-2.15c-.476-.96-.714-2.18-.714-3.661 0-1.497.238-2.717.714-3.662.476-.961 1.174-1.67 2.095-2.127.936-.472 2.079-.708 3.428-.708 1.27 0 2.341.228 3.214.685.873.44 1.531 1.134 1.976 2.079.444.93.666 2.134.666 3.615v.85h-8.737c.032.725.143 1.339.334 1.843.206.504.515.882.928 1.134.429.236.992.354 1.69.354.381 0 .722-.047 1.024-.142a2.2 2.2 0 0 0 .809-.425c.223-.189.397-.425.524-.709.127-.283.191-.606.191-.968h3.237c0 .787-.143 1.472-.428 2.055a4.13 4.13 0 0 1-1.191 1.465c-.507.378-1.118.67-1.833.874-.698.189-1.476.284-2.333.284Zm-2.904-7.844h5.285c0-.473-.063-.882-.19-1.229a2.216 2.216 0 0 0-.477-.85 1.731 1.731 0 0 0-.761-.473 2.698 2.698 0 0 0-.976-.165c-.604 0-1.111.103-1.524.307a2.042 2.042 0 0 0-.929.898c-.206.394-.349.898-.428 1.512Zm10.165 7.56V16.448h2.738l.262 1.938h.166c.159-.41.366-.78.619-1.11.254-.347.572-.623.953-.828.381-.204.825-.307 1.333-.307.27 0 .516.032.738.095.222.047.389.094.5.141v2.977h-1.024c-.492 0-.928.071-1.309.213-.365.126-.675.33-.929.614s-.444.63-.571 1.04c-.111.409-.167.89-.167 1.44v6.214h-3.309Zm11.168.284c-.412 0-.857-.048-1.333-.142a4.397 4.397 0 0 1-1.309-.496 3.008 3.008 0 0 1-1.024-1.064c-.254-.472-.381-1.07-.381-1.795 0-.866.191-1.583.571-2.15.381-.567.921-1.008 1.619-1.323.714-.33 1.564-.559 2.548-.685a25.8 25.8 0 0 1 3.261-.189v-.921a2.18 2.18 0 0 0-.19-.945c-.112-.268-.318-.48-.619-.638-.286-.158-.691-.236-1.215-.236-.523 0-.952.063-1.285.189-.317.126-.548.29-.69.496a1.118 1.118 0 0 0-.191.637v.284h-3.214a1.078 1.078 0 0 1-.024-.213v-.283c0-.725.223-1.347.667-1.866.444-.536 1.071-.945 1.881-1.229.809-.284 1.753-.425 2.833-.425 1.158 0 2.126.15 2.904.449.794.299 1.397.74 1.809 1.323.429.582.643 1.315.643 2.197v5.646c0 .284.079.496.238.638a.957.957 0 0 0 .572.189h.785v2.15c-.159.079-.405.157-.738.236-.333.095-.738.142-1.214.142a3.4 3.4 0 0 1-1.238-.213 2.374 2.374 0 0 1-.881-.543 2.102 2.102 0 0 1-.5-.898h-.166c-.27.33-.603.622-1 .874a4.636 4.636 0 0 1-1.357.59c-.508.143-1.095.213-1.762.213Zm1.119-2.481c.444 0 .841-.063 1.19-.19.35-.14.643-.322.881-.543a2.39 2.39 0 0 0 .548-.85 2.65 2.65 0 0 0 .214-1.063v-.685c-.889 0-1.682.063-2.381.189-.698.11-1.253.307-1.666.59-.397.284-.595.678-.595 1.182 0 .283.071.527.214.732.143.205.349.362.619.473.27.11.595.165.976.165Zm8.429 2.197v-17.08h3.309v17.08h-3.309Z"/></svg>