<svg xmlns="http://www.w3.org/2000/svg" width="50" height="50" fill="none"><path fill="#0A0A0A" d="M27.53 40.14c.046-4.59-1.118-8.322-2.598-8.336-1.48-.015-2.716 3.694-2.76 8.283-.046 4.59 1.118 8.322 2.598 8.336 1.48.014 2.716-3.694 2.76-8.283Zm-8.583-1.043c2.52-3.836 3.558-7.605 2.321-8.417-1.237-.813-4.282 1.639-6.801 5.475-2.52 3.837-3.559 7.605-2.321 8.418 1.237.812 4.282-1.64 6.801-5.476Zm-6.667-5.504c4.193-1.865 7.104-4.474 6.503-5.826-.602-1.352-4.489-.937-8.682.929-4.194 1.865-7.105 4.473-6.504 5.826.602 1.352 4.489.936 8.682-.929Zm6-9.619c.224-1.462-3.27-3.214-7.806-3.913-4.536-.698-8.396-.078-8.621 1.385-.225 1.463 3.27 3.215 7.805 3.913 4.536.698 8.396.078 8.621-1.385Zm1.628-3.484c.98-1.11-1.013-4.473-4.452-7.512-3.439-3.039-7.021-4.604-8.001-3.495-.98 1.11 1.013 4.472 4.452 7.511 3.438 3.04 7.02 4.605 8.001 3.495Zm3.243-2.037c1.425-.403 1.566-4.31.317-8.726-1.25-4.416-3.418-7.67-4.842-7.266-1.424.403-1.566 4.31-.316 8.726 1.25 4.415 3.417 7.669 4.841 7.266Zm8.807-7.129c1.337-4.39 1.272-8.3-.144-8.73-1.416-.431-3.647 2.779-4.983 7.17-1.337 4.39-1.272 8.298.144 8.73 1.416.43 3.647-2.78 4.983-7.17Zm6.293 5.932c3.498-2.971 5.557-6.294 4.598-7.422-.958-1.128-4.57.366-8.068 3.338-3.498 2.971-5.556 6.294-4.598 7.422.959 1.128 4.57-.366 8.068-3.338Zm2.081 8.396c4.55-.609 8.078-2.291 7.881-3.759-.196-1.466-4.043-2.162-8.592-1.554-4.549.609-8.077 2.291-7.88 3.758.195 1.467 4.042 2.163 8.591 1.555Zm5.868 9.289c.628-1.34-2.231-4.006-6.387-5.953-4.156-1.948-8.034-2.44-8.662-1.1-.628 1.34 2.232 4.006 6.387 5.953 4.156 1.948 8.034 2.44 8.662 1.1Zm-8.741 9.889c1.253-.788.288-4.576-2.155-8.462-2.443-3.885-5.439-6.396-6.692-5.608-1.253.788-.288 4.576 2.155 8.461 2.443 3.886 5.439 6.397 6.692 5.609Z"/></svg>