<svg xmlns="http://www.w3.org/2000/svg" width="135" height="42" fill="none"><path fill="#fff" fill-rule="evenodd" d="M17.42 38.5c9.62 0 17.419-7.835 17.419-17.5s-7.8-17.5-17.42-17.5C7.8 3.5 0 11.335 0 21s7.799 17.5 17.42 17.5Zm5.434-26.848c.264-.944-.648-1.502-1.48-.906l-11.625 8.32c-.903.646-.761 1.934.213 1.934h3.061v-.024h5.966L14.13 22.7l-2.144 7.649c-.264.944.647 1.502 1.48.906l11.625-8.32c.903-.646.76-1.934-.213-1.934h-4.643l2.62-9.348Z" clip-rule="evenodd"/><path fill="#fff" d="M112.352 14.763c.39.36.862.54 1.415.54.568 0 1.04-.18 1.414-.54.374-.36.561-.833.561-1.42 0-.589-.187-1.063-.561-1.422-.374-.36-.846-.539-1.414-.539-.553 0-1.025.18-1.415.54-.374.358-.561.832-.561 1.42s.187 1.062.561 1.421Z"/><path fill="#fff" fill-rule="evenodd" d="M53.986 28.336c-.764.36-1.658.54-2.682.54h-7.756v-17.15h7.658c1.04 0 1.943.179 2.707.538.78.343 1.382.841 1.805 1.495.438.637.658 1.404.658 2.303v.245c0 .784-.146 1.429-.439 1.935-.293.49-.642.874-1.049 1.152a4.51 4.51 0 0 1-1.121.563v.441c.357.098.747.286 1.17.564.423.26.78.645 1.073 1.151.31.506.464 1.168.464 1.985v.245c0 .947-.22 1.764-.659 2.45-.439.67-1.048 1.184-1.829 1.543Zm-1.366-6.1c-.422-.343-.991-.515-1.707-.515h-4.145v4.214h4.145c.7 0 1.26-.171 1.683-.514.439-.343.659-.833.659-1.47v-.245c0-.637-.212-1.127-.635-1.47Zm-.097-7.056c-.423-.343-.976-.515-1.659-.515h-4.096v4.116h4.096c.667 0 1.212-.171 1.635-.514.438-.343.658-.817.658-1.421V16.6c0-.621-.211-1.095-.634-1.421Zm11.21 14.038c-1.203 0-2.284-.245-3.243-.735a5.496 5.496 0 0 1-2.268-2.131c-.553-.931-.83-2.05-.83-3.357v-.392c0-1.307.277-2.425.83-3.356a5.496 5.496 0 0 1 2.268-2.132c.96-.49 2.04-.735 3.243-.735 1.203 0 2.285.245 3.244.735.96.49 1.715 1.2 2.268 2.132.553.93.83 2.05.83 3.356v.392c0 1.307-.277 2.426-.83 3.357a5.497 5.497 0 0 1-2.268 2.131c-.96.49-2.04.735-3.244.735Zm0-2.744c.943 0 1.724-.302 2.342-.906.617-.621.926-1.503.926-2.646v-.245c0-1.144-.309-2.018-.926-2.622-.602-.62-1.382-.93-2.342-.93-.942 0-1.723.31-2.34.93-.619.604-.927 1.478-.927 2.622v.245c0 1.143.308 2.025.926 2.646.618.604 1.398.906 2.341.906Z" clip-rule="evenodd"/><path fill="#fff" d="M81.583 28.875c-.796 0-1.447-.245-1.95-.735-.489-.506-.732-1.176-.732-2.009v-6.86h-3.024v-2.548H78.9V12.95h3.072v3.773h3.317v2.548h-3.317v6.321c0 .49.228.735.683.735h2.341v2.548h-3.414Zm6.415-.685c1.008.685 2.3 1.028 3.878 1.028 1.544 0 2.772-.343 3.682-1.029.927-.702 1.39-1.69 1.39-2.964 0-.85-.22-1.52-.658-2.01-.423-.506-1.008-.89-1.756-1.15a13.834 13.834 0 0 0-2.463-.662l-.683-.123c-.553-.098-.992-.237-1.317-.416-.325-.196-.488-.49-.488-.882a.93.93 0 0 1 .464-.833c.309-.213.756-.319 1.341-.319s1.073.13 1.463.392c.407.261.675.702.805 1.323l2.853-.882c-.276-.98-.861-1.772-1.756-2.376-.894-.605-2.016-.907-3.365-.907-1.431 0-2.585.327-3.463.98-.878.637-1.317 1.56-1.317 2.769 0 .8.212 1.453.634 1.96.423.506.983.906 1.683 1.2.7.278 1.471.498 2.317.662l.682.122c.716.13 1.236.302 1.561.515a.943.943 0 0 1 .488.857c0 .376-.17.694-.512.956-.341.245-.87.367-1.585.367-.471 0-.91-.065-1.317-.196a2.4 2.4 0 0 1-1-.71c-.26-.327-.447-.776-.56-1.348l-2.83.735c.212 1.274.821 2.254 1.83 2.94Zm14.277-8.11c-.521.62-.78 1.494-.78 2.621v6.174h-3.073v-17.15h3.073v6.493h.439c.13-.262.332-.523.609-.784.277-.262.642-.474 1.098-.637.471-.18 1.064-.27 1.78-.27.942 0 1.764.22 2.463.662a4.3 4.3 0 0 1 1.659 1.788c.39.751.585 1.633.585 2.646v7.252h-3.073v-7.007c0-.915-.228-1.6-.683-2.058-.439-.457-1.073-.686-1.902-.686-.943 0-1.675.319-2.195.956Zm27.06 8.06c-.488-.506-.731-1.176-.731-2.009v-6.86h-6.043v9.604h-3.073v-9.604h-3.073v-2.548h3.073V14.47c0-.833.244-1.494.732-1.984.504-.507 1.154-.76 1.951-.76h3.17v2.548h-2.097c-.456 0-.683.245-.683.735v1.715h6.043V12.95h3.072v3.773h3.317v2.548h-3.317v6.321c0 .49.228.735.683.735h2.341v2.548h-3.414c-.797 0-1.446-.245-1.951-.735ZM112.23 16.723v12.152h3.073V16.723h-3.073Zm-40.539-4.998v17.15h3.073v-17.15H71.69Z"/></svg>