<svg xmlns="http://www.w3.org/2000/svg" width="65" height="34" fill="none"><g fill="#919191" clip-path="url(#a)"><path d="M-.242 19.678h1.926v9.26H-.242v-9.26Zm3.044 6.087a3.315 3.315 0 0 1 .574-1.87 3.415 3.415 0 0 1 1.538-1.24 3.493 3.493 0 0 1 1.982-.194 3.45 3.45 0 0 1 1.757.919c.48.47.807 1.069.94 1.72a3.3 3.3 0 0 1-.194 1.944 3.376 3.376 0 0 1-1.263 1.51 3.477 3.477 0 0 1-1.905.567 3.448 3.448 0 0 1-1.317-.245 3.396 3.396 0 0 1-1.117-.727 3.32 3.32 0 0 1-.743-1.093 3.267 3.267 0 0 1-.252-1.29Zm4.918 0a1.44 1.44 0 0 0-.27-.8 1.485 1.485 0 0 0-.676-.522 1.518 1.518 0 0 0-1.61.34 1.434 1.434 0 0 0-.306 1.587c.114.265.305.49.549.65.244.159.53.243.824.244a1.476 1.476 0 0 0 1.08-.43 1.42 1.42 0 0 0 .41-1.069Zm9.684-3.173v6.031c0 2.134-1.702 3.035-3.423 3.035a3.364 3.364 0 0 1-1.751-.347 3.283 3.283 0 0 1-1.312-1.19l1.657-.937c.131.26.34.474.597.617a1.5 1.5 0 0 0 .848.182 1.308 1.308 0 0 0 1.086-.32 1.237 1.237 0 0 0 .403-1.04v-.585c-.226.273-.515.49-.843.633a2.327 2.327 0 0 1-1.045.192 3.32 3.32 0 0 1-2.324-.944 3.191 3.191 0 0 1-.963-2.28c0-.855.346-1.674.963-2.279a3.321 3.321 0 0 1 2.324-.944 2.35 2.35 0 0 1 1.044.193c.328.144.617.36.844.632v-.63l1.895-.019Zm-1.895 3.047a1.514 1.514 0 0 0-.232-.87 1.558 1.558 0 0 0-.689-.593 1.595 1.595 0 0 0-1.729.292 1.529 1.529 0 0 0-.447.785c-.066.3-.039.611.078.896.116.284.317.528.576.7.259.171.564.263.877.264a1.491 1.491 0 0 0 1.116-.396 1.436 1.436 0 0 0 .45-1.078Zm3.005.126a3.315 3.315 0 0 1 .575-1.87 3.415 3.415 0 0 1 1.538-1.24 3.493 3.493 0 0 1 1.981-.194 3.451 3.451 0 0 1 1.758.919c.48.47.807 1.069.94 1.72a3.3 3.3 0 0 1-.194 1.944 3.376 3.376 0 0 1-1.263 1.51 3.477 3.477 0 0 1-1.906.567 3.448 3.448 0 0 1-1.316-.245 3.395 3.395 0 0 1-1.117-.727 3.319 3.319 0 0 1-.743-1.093 3.266 3.266 0 0 1-.253-1.29Zm4.92 0a1.442 1.442 0 0 0-.27-.8 1.485 1.485 0 0 0-.677-.522 1.518 1.518 0 0 0-1.61.34 1.434 1.434 0 0 0-.306 1.587c.114.265.305.49.549.65.244.159.53.243.823.244a1.476 1.476 0 0 0 1.072-.434 1.419 1.419 0 0 0 .405-1.065h.013Zm2.831-4.872c0-.227.068-.448.197-.637.128-.188.31-.335.524-.422a1.19 1.19 0 0 1 1.274.248 1.125 1.125 0 0 1 .253 1.249 1.14 1.14 0 0 1-.43.514 1.187 1.187 0 0 1-1.474-.144 1.14 1.14 0 0 1-.344-.808Zm.199 1.7h1.926v6.345h-1.926v-6.346Zm10.326 3.172a3.174 3.174 0 0 1-.832 2.308 3.245 3.245 0 0 1-1.022.745 3.3 3.3 0 0 1-1.235.303 2.504 2.504 0 0 1-1.051-.178 2.46 2.46 0 0 1-.876-.597v3.148h-1.926v-8.902h1.926v.599a2.46 2.46 0 0 1 .876-.597 2.503 2.503 0 0 1 1.05-.178 3.3 3.3 0 0 1 1.234.302 3.229 3.229 0 0 1 1.672 1.814c.144.395.206.814.183 1.233Zm-1.927 0a1.491 1.491 0 0 0-.276-.825 1.537 1.537 0 0 0-.693-.54 1.57 1.57 0 0 0-1.661.335 1.483 1.483 0 0 0-.341 1.629c.111.275.302.51.55.68.247.168.54.262.841.27a1.505 1.505 0 0 0 1.142-.425 1.423 1.423 0 0 0 .425-1.123h.013Zm7.924 1.272c0 1.46-1.284 2.084-2.697 2.084a2.885 2.885 0 0 1-1.626-.338 2.808 2.808 0 0 1-1.154-1.173l1.682-.938c.068.229.214.428.414.564.2.137.441.202.684.185.469 0 .7-.145.7-.397 0-.698-3.21-.327-3.21-2.518 0-1.385 1.194-2.084 2.568-2.084a2.891 2.891 0 0 1 1.454.343c.445.239.816.59 1.076 1.017l-1.689.869a.944.944 0 0 0-.352-.407.971.971 0 0 0-.521-.153c-.334 0-.54.126-.54.359.026.724 3.21.239 3.21 2.587Zm7.089-4.445v6.346H47.95v-.592a2.228 2.228 0 0 1-1.85.775c-1.284 0-2.42-.913-2.42-2.632v-3.897h1.926v3.62a1.027 1.027 0 0 0 .302.847 1.068 1.068 0 0 0 .86.305c.706 0 1.2-.403 1.2-1.303v-3.469h1.908Zm11.134 2.455v3.891h-1.926v-3.727c0-.63-.315-1.045-.931-1.045-.617 0-1.015.447-1.015 1.196v3.576h-1.926v-3.727c0-.63-.308-1.045-.931-1.045s-1.008.447-1.008 1.196v3.576h-1.927v-6.346h1.927v.586c.201-.259.465-.464.768-.597.303-.133.635-.19.965-.165a1.952 1.952 0 0 1 1.696.837c.215-.283.5-.509.827-.655a2.169 2.169 0 0 1 1.048-.182c1.464 0 2.433 1.045 2.433 2.631Zm1.644-2.492c.795 0 1.439-.632 1.439-1.41 0-.78-.644-1.41-1.439-1.41-.794 0-1.438.63-1.438 1.41 0 .778.644 1.41 1.438 1.41Zm-41.096-7.681c3.72 0 6.736-2.956 6.736-6.604 0-3.647-3.016-6.603-6.736-6.603-3.72 0-6.736 2.956-6.736 6.603 0 3.648 3.016 6.604 6.736 6.604Zm15.058 0c3.72 0 6.736-2.956 6.736-6.604 0-3.647-3.016-6.603-6.736-6.603-3.72 0-6.736 2.956-6.736 6.603 0 3.648 3.016 6.604 6.736 6.604ZM13.236 1.667H-.229v13.201h13.465V1.667Z"/></g><defs><clipPath id="a"><path fill="#fff" d="M0 0h65v34H0z"/></clipPath></defs></svg>