<svg xmlns="http://www.w3.org/2000/svg" width="189" height="42" fill="none"><path fill="#fff" d="M23.518 33.25c6.849 0 12.4-5.68 12.4-12.688 0-7.007-5.551-12.687-12.4-12.687s-12.4 5.68-12.4 12.688c0 7.007 5.551 12.687 12.4 12.687Z"/><path fill="#fff" d="M12.588 14.564A9.2 9.2 0 0 0 9.408 14C4.211 14 0 18.31 0 23.625c0 5.316 4.212 9.625 9.407 9.625h14.111c-6.849 0-12.4-5.68-12.4-12.688 0-2.17.532-4.212 1.47-5.998Z" opacity=".5"/><path fill="#fff" d="M53.275 30.004c-5.035 0-8.804-3.934-8.804-9.135 0-5.202 3.77-9.135 8.804-9.135 4.092 0 7.763 2.765 8.259 6.496H57.44c-.47-1.65-2.157-2.842-4.166-2.842-2.852 0-5.035 2.36-5.035 5.48 0 3.122 2.183 5.482 5.035 5.482 2.034 0 3.745-1.295 4.191-3.07h4.117c-.67 3.958-4.067 6.724-8.308 6.724Zm13.363-18.017V29.75h-3.497V11.987h3.497ZM97.662 29.75v-1.624c-.77 1.192-1.91 1.878-3.299 1.878-3.125 0-5.01-2.132-5.01-5.659v-7.054h3.497v6.597c0 1.624.968 2.69 2.406 2.69 1.463 0 2.406-1.066 2.406-2.69v-6.597h3.497V29.75h-3.497Zm11.438-3.172c1.711 0 3.051-1.32 3.051-3.07 0-1.726-1.34-3.07-3.051-3.07a3.057 3.057 0 0 0-3.051 3.07 3.041 3.041 0 0 0 3.051 3.07Zm-6.473-3.07c0-3.578 2.505-6.47 5.679-6.47 1.712 0 3.001.735 3.845 2.03v-7.08h3.496V29.75h-3.496v-1.776c-.844 1.294-2.133 2.03-3.845 2.03-3.174 0-5.679-2.918-5.679-6.496Zm34.834-11.546h3.844l-5.754 17.788H132.6l-3.646-11.419-3.621 11.419h-2.976l-5.803-17.788h3.918l3.448 11.444 3.596-11.444h2.951l3.596 11.444 3.398-11.444Zm15.195 5.328v12.46h-3.496v-1.776c-.844 1.294-2.133 2.03-3.845 2.03-3.174 0-5.679-2.919-5.679-6.496 0-3.578 2.505-6.471 5.679-6.471 1.712 0 3.001.736 3.845 2.03v-1.776h3.496Zm-9.597 6.218a3.04 3.04 0 0 0 3.05 3.07c1.711 0 3.051-1.32 3.051-3.07 0-1.726-1.34-3.07-3.051-3.07a3.056 3.056 0 0 0-3.05 3.07Zm17.621 6.42c-2.877 0-4.811-1.904-4.811-5.253v-3.984h-2.257v-3.4h2.257v-3.274h3.497v3.274h3v3.4h-3v3.933c0 1.345.892 1.929 2.108 1.929.297 0 .62-.026.892-.102v3.299c-.471.127-1.19.178-1.686.178Zm8.386.076c-3.596 0-6.324-2.766-6.324-6.471s2.728-6.496 6.324-6.496c3.051 0 5.63 2.132 5.952 4.999h-3.546c-.248-.914-1.24-1.573-2.406-1.573-1.662 0-2.902 1.294-2.902 3.07 0 1.726 1.24 3.045 2.902 3.045 1.166 0 2.183-.71 2.431-1.675h3.546c-.273 2.97-2.877 5.1-5.977 5.1Zm7.288-18.017h3.497v6.928c.769-1.193 1.91-1.878 3.299-1.878 3.124 0 5.009 2.132 5.009 5.659v7.054h-3.497v-6.598c0-1.624-.967-2.69-2.405-2.69-1.464 0-2.406 1.066-2.406 2.69v6.598h-3.497V11.987Z"/><path fill="#fff" fill-rule="evenodd" d="M74.296 30.004c-3.59-.008-6.31-2.771-6.31-6.471s2.72-6.489 6.31-6.496h7.287c3.571 0 6.324 2.791 6.324 6.496 0 3.705-2.753 6.47-6.324 6.47h-7.287Zm.014-3.426h7.273c1.637 0 2.926-1.32 2.926-3.045 0-1.75-1.29-3.07-2.926-3.07H74.31c-1.662 0-2.927 1.32-2.927 3.07 0 1.726 1.265 3.045 2.927 3.045Z" clip-rule="evenodd"/></svg>